<?xml version="1.0" encoding="UTF-8"?>
<svg width="800" height="500" viewBox="0 0 800 500" xmlns="http://www.w3.org/2000/svg">
  <!-- Definitions for Gradients, Patterns, and Filters -->
  <defs>
    <!-- CSS Variables for Theme Support -->
    <style>
      :root {
        --bg-color: #f8fafc;
        --sky-color: #1e293b;
        --text-light: #f8fafc;
        --text-dark: #334155;
        --highlight-red: #ef4444;
        --highlight-green: #10b981;
        --formula-bg: #1e293b;
        --formula-border: #6ee7b7;
        --formula-text: #f0f9ff;
        --formula-subtext: #a5f3fc;
      }

      .dark-mode {
        --bg-color: #1e293b;
        --sky-color: #0f172a;
        --text-light: #f8fafc;
        --text-dark: #e2e8f0;
        --highlight-red: #f87171;
        --highlight-green: #34d399;
        --formula-bg: #0f172a;
        --formula-border: #34d399;
        --formula-text: #f0f9ff;
        --formula-subtext: #a5f3fc;
      }
    </style>

    <!-- Mud Pattern -->
    <pattern id="mudPattern" patternUnits="userSpaceOnUse" width="100" height="100" patternTransform="scale(0.2)">
      <rect width="100" height="100" fill="#5D4037"/>
      <circle cx="25" cy="25" r="8" fill="#4E342E"/>
      <circle cx="75" cy="30" r="10" fill="#4E342E"/>
      <circle cx="40" cy="70" r="9" fill="#4E342E"/>
      <circle cx="60" cy="50" r="7" fill="#4E342E"/>
    </pattern>

    <!-- Pressure Gradient for Barefoot -->
    <radialGradient id="pressureGradientBarefoot" cx="50%" cy="50%" r="50%" fx="50%" fy="50%">
      <stop offset="0%" style="stop-color:#FF3300;stop-opacity:0.9"/>
      <stop offset="100%" style="stop-color:#FF3300;stop-opacity:0.2"/>
    </radialGradient>

    <!-- Pressure Gradient for Shoes -->
    <radialGradient id="pressureGradientShoes" cx="50%" cy="50%" r="50%" fx="50%" fy="50%">
      <stop offset="0%" style="stop-color:#00BB00;stop-opacity:0.9"/>
      <stop offset="100%" style="stop-color:#00BB00;stop-opacity:0.2"/>
    </radialGradient>

    <!-- Deformation Filter -->
    <filter id="deform" x="-20%" y="-20%" width="140%" height="140%">
      <feTurbulence type="turbulence" baseFrequency="0.05" numOctaves="2" result="turbulence"/>
      <feDisplacementMap in="SourceGraphic" in2="turbulence" scale="5" xChannelSelector="R" yChannelSelector="G"/>
    </filter>
  </defs>

  <!-- Background Sky -->
  <rect width="800" height="150" fill="var(--sky-color)"/>

  <!-- Ground and Mud Area -->
  <rect y="150" width="800" height="350" fill="#4a352d"/>
  <rect y="200" width="800" height="300" fill="url(#mudPattern)" id="wetMudArea"/>

  <!-- Instructional Text -->
  <text x="400" y="40" font-family="Arial, sans-serif" font-size="24" fill="var(--text-light)" text-anchor="middle">চাপের তুলনা: নগ্ন পা বনাম জুতো পরা অবস্থা</text>
  <text x="400" y="80" font-family="Arial, sans-serif" font-size="18" fill="var(--text-light)" text-anchor="middle">কাদামাটিতে হাঁটার সময় চাপের প্রভাব দেখুন</text>

  <!-- LEFT SIDE: Barefoot Walking -->
  <g transform="translate(200, 270)">
    <!-- Barefoot Impression in Mud -->
    <path id="barefootImpression" d="M-50,10 C-40,-30 0,-40 30,-20 C60,0 60,40 30,60 C0,80 -40,50 -50,10 Z" fill="#3E2723" stroke="#33291F" stroke-width="2"/>

    <!-- Deeper Mud Depression - Barefoot -->
    <path id="barefootDeepImpression" d="M-40,15 C-30,-20 0,-30 25,-15 C50,0 50,35 25,50 C0,65 -30,45 -40,15 Z" fill="#33291F"/>

    <!-- Pressure Indicator for Barefoot -->
    <circle id="barefootPressureIndicator" cx="0" cy="15" r="45" fill="url(#pressureGradientBarefoot)">
      <animate attributeName="r" values="40;60;40" dur="2s" repeatCount="indefinite"/>
      <animate attributeName="opacity" values="0.7;0.9;0.7" dur="2s" repeatCount="indefinite"/>
    </circle>

    <!-- Arrows showing high pressure -->
    <g fill="var(--highlight-red)" stroke="var(--highlight-red)" stroke-width="2">
      <path d="M-20,-50 L-10,0 L-30,0 Z"/>
      <path d="M20,-50 L10,0 L30,0 Z"/>
      <path d="M60,20 L20,30 L20,10 Z"/>
      <path d="M-60,20 L-20,30 L-20,10 Z"/>
    </g>

    <!-- Pressure Value -->
    <text id="barefootPressureValue" x="0" y="-70" font-family="Arial, sans-serif" font-size="20" fill="var(--highlight-red)" text-anchor="middle" font-weight="bold">উচ্চ চাপ</text>
    <text x="0" y="-45" font-family="Arial, sans-serif" font-size="18" fill="var(--highlight-red)" text-anchor="middle">ছোট এলাকায় বেশি বল প্রয়োগ</text>

    <!-- Barefoot Label -->
    <text x="0" y="100" font-family="Arial, sans-serif" font-size="22" fill="var(--text-light)" text-anchor="middle" font-weight="bold">নগ্ন পা</text>
  </g>

  <!-- RIGHT SIDE: Walking with Shoes -->
  <g transform="translate(600, 270)">
    <!-- Shoe Impression in Mud -->
    <rect id="shoeImpression" x="-60" y="-45" width="120" height="90" rx="20" ry="30" fill="#3E2723" stroke="#33291F" stroke-width="2"/>

    <!-- Shallow Mud Depression - Shoes -->
    <rect id="shoeDeepImpression" x="-50" y="-35" width="100" height="70" rx="15" ry="25" fill="#33291F"/>

    <!-- Pressure Indicator for Shoes -->
    <rect id="shoePressureIndicator" x="-55" y="-40" width="110" height="80" rx="15" ry="25" fill="url(#pressureGradientShoes)">
      <animate attributeName="opacity" values="0.5;0.7;0.5" dur="2s" repeatCount="indefinite"/>
    </rect>

    <!-- Arrows showing distributed pressure -->
    <g fill="var(--highlight-green)" stroke="var(--highlight-green)" stroke-width="2">
      <path d="M-30,-60 L-30,-20 L-40,-30 L-20,-30 Z"/>
      <path d="M0,-60 L0,-20 L-10,-30 L10,-30 Z"/>
      <path d="M30,-60 L30,-20 L20,-30 L40,-30 Z"/>
      <path d="M-30,60 L-30,20 L-40,30 L-20,30 Z"/>
      <path d="M0,60 L0,20 L-10,30 L10,30 Z"/>
      <path d="M30,60 L30,20 L20,30 L40,30 Z"/>
    </g>

    <!-- Pressure Value -->
    <text id="shoePressureValue" x="0" y="-70" font-family="Arial, sans-serif" font-size="20" fill="var(--highlight-green)" text-anchor="middle" font-weight="bold">কম চাপ</text>
    <text x="0" y="-45" font-family="Arial, sans-serif" font-size="18" fill="var(--highlight-green)" text-anchor="middle">বড় এলাকায় বল বণ্টন</text>

    <!-- Shoes Label -->
    <text x="0" y="100" font-family="Arial, sans-serif" font-size="22" fill="var(--text-light)" text-anchor="middle" font-weight="bold">জুতা পরা অবস্থা</text>
  </g>

  <!-- Pressure Formula -->
  <g transform="translate(400, 420)">
    <rect x="-150" y="-40" width="300" height="80" rx="15" ry="15" fill="var(--formula-bg)" stroke="var(--formula-border)" stroke-width="2"/>
    <text id="formulaTitle" x="0" y="-15" font-family="Arial, sans-serif" font-size="20" fill="var(--formula-text)" text-anchor="middle" font-weight="bold">চাপ = বল ÷ ক্ষেত্রফল</text>
    <text id="formulaDetails" x="0" y="5" font-family="Arial, sans-serif" font-size="16" fill="var(--formula-subtext)" text-anchor="middle"></text>
    <text id="formulaExplanation" x="0" y="25" font-family="Arial, sans-serif" font-size="16" fill="var(--formula-subtext)" text-anchor="middle">একই ওজন, ভিন্ন চাপ</text>
    <text id="comparisonValue" x="0" y="45" font-family="Arial, sans-serif" font-size="18" fill="var(--formula-text)" text-anchor="middle" font-weight="bold"></text>
  </g>

  <!-- Animation: Depth and Pressure Indicators -->
  <g>
    <!-- Barefoot Animation -->
    <circle id="barefootAnimation" cx="200" cy="270" r="50" fill="none" stroke="var(--highlight-red)" stroke-width="3" opacity="0.8">
      <animate attributeName="r" values="50;70;50" dur="3s" repeatCount="indefinite"/>
      <animate attributeName="opacity" values="0.8;0.3;0.8" dur="3s" repeatCount="indefinite"/>
    </circle>

    <!-- Shoes Animation -->
    <rect id="shoeAnimation" x="545" y="230" width="110" height="80" rx="15" ry="25" fill="none" stroke="var(--highlight-green)" stroke-width="3" opacity="0.8">
      <animate attributeName="opacity" values="0.8;0.3;0.8" dur="3s" repeatCount="indefinite"/>
      <animate attributeName="stroke-width" values="3;5;3" dur="3s" repeatCount="indefinite"/>
    </rect>
  </g>
</svg>
