<?xml version="1.0" encoding="iso-8859-1"?>
<!-- Uploaded to: SVG Repo, www.svgrepo.com, Generator: SVG Repo Mixer Tools -->
<!DOCTYPE svg PUBLIC "-//W3C//DTD SVG 1.1//EN" "http://www.w3.org/Graphics/SVG/1.1/DTD/svg11.dtd">
<svg version="1.1" id="Capa_1" xmlns="http://www.w3.org/2000/svg" xmlns:xlink="http://www.w3.org/1999/xlink" 
	 viewBox="0 0 297.497 297.497" xml:space="preserve">
<g>
	<g id="XMLID_35_">
		<g>
			<polygon style="fill:#0099EF;" points="110.614,161.947 105.974,166.587 87.674,148.288 92.314,143.658 			"/>
			<rect x="46.524" y="262.668" style="fill:#0099EF;" width="100.7" height="14.24"/>
			<path style="fill:#CDD9DD;" d="M250.964,200.617v76.29h-7.5v-74.26c0-21.49-6.5-38.73-19.31-51.23
				c-12.51-12.22-28.26-16.98-39.21-18.82l7.94-7.93c4.74,1,16.4,4.09,27.9,12.02C240.814,150.497,250.964,172.008,250.964,200.617z
				"/>
			<polygon style="fill:#BCE6EC;" points="216.534,72.247 133.104,155.678 98.584,121.158 182.004,37.728 			"/>
			<path d="M271.314,200.617v86.46c0,5.62-4.56,10.17-10.17,10.17H36.354c-5.62,0-10.17-4.55-10.17-10.17v-34.58
				c0-5.62,4.55-10.17,10.17-10.17h121.04c5.62,0,10.17,4.55,10.17,10.17v24.41h55.56v-74.26c0-15.74-4.4-28.04-13.07-36.57
				c-14.72-14.49-37.55-14.26-37.78-14.28c-0.05,0-0.15,0-0.2,0h-6.33l-25.45,25.45c-1.99,1.99-4.59,2.98-7.19,2.98
				c-2.61,0-5.21-0.99-7.19-2.98l-0.92-0.91l-11.83,11.83c-1.9,1.9-4.49,2.98-7.19,2.98c-2.69,0-5.28-1.08-7.19-2.98l-32.68-32.68
				c-3.98-3.98-3.98-10.42,0-14.39l11.82-11.83l-0.92-0.92c-3.97-3.97-3.97-10.41,0-14.39l97.81-97.81c1.91-1.91,4.5-2.98,7.19-2.98
				c2.7,0,5.29,1.07,7.2,2.98l48.9,48.91c3.98,3.97,3.98,10.41,0,14.38l-28.8,28.8c6.74,2.4,14.88,6.09,23.03,11.7
				C250.114,132.197,271.314,156.148,271.314,200.617z M250.964,276.908v-76.29c0-28.61-10.15-50.12-30.18-63.93
				c-11.5-7.93-23.16-11.02-27.9-12.02l-7.94,7.93c10.95,1.84,26.7,6.6,39.21,18.82c12.81,12.5,19.31,29.74,19.31,51.23v74.26
				H250.964z M133.104,155.678l83.43-83.43l-34.53-34.52l-83.42,83.43L133.104,155.678z M147.224,276.908v-14.24h-100.7v14.24
				H147.224z M105.974,166.587l4.64-4.64l-18.3-18.29l-4.64,4.63L105.974,166.587z"/>
			<path d="M251.044,37.807c3.97,3.97,3.97,10.41,0,14.39c-1.99,1.98-4.59,2.97-7.2,2.97c-2.6,0-5.2-0.99-7.19-2.97l-34.58-34.59
				c-3.97-3.97-3.97-10.41,0-14.38s10.41-3.97,14.38,0L251.044,37.807z"/>
		</g>
		<g>
		</g>
	</g>
</g>
</svg>