<?xml version="1.0" encoding="UTF-8"?>
<svg width="200" height="150" viewBox="0 0 200 150" xmlns="http://www.w3.org/2000/svg">
  <!-- Battery -->
  <rect x="10" y="60" width="40" height="30" fill="white" stroke="black" stroke-width="2"/>
  <line x1="20" y1="75" x2="30" y2="75" stroke="black" stroke-width="3"/>
  <line x1="35" y1="75" x2="45" y2="75" stroke="black" stroke-width="3"/>
  <line x1="32" y1="65" x2="32" y2="85" stroke="black" stroke-width="1"/>

  <!-- Resistor 1 -->
  <rect x="80" y="30" width="60" height="20" fill="#f7d9c4" stroke="black" stroke-width="2"/>
  <text x="100" y="45" font-size="12" text-anchor="middle">R₁</text>

  <!-- Resistor 2 -->
  <rect x="80" y="70" width="60" height="20" fill="#f7d9c4" stroke="black" stroke-width="2"/>
  <text x="100" y="85" font-size="12" text-anchor="middle">R₂</text>

  <!-- Resistor 3 -->
  <rect x="80" y="110" width="60" height="20" fill="#f7d9c4" stroke="black" stroke-width="2"/>
  <text x="100" y="125" font-size="12" text-anchor="middle">R₃</text>

  <!-- Wires -->
  <line x1="50" y1="75" x2="60" y2="75" stroke="black" stroke-width="2"/>
  <line x1="60" y1="40" x2="60" y2="120" stroke="black" stroke-width="2"/>
  <line x1="60" y1="40" x2="80" y2="40" stroke="black" stroke-width="2"/>
  <line x1="60" y1="80" x2="80" y2="80" stroke="black" stroke-width="2"/>
  <line x1="60" y1="120" x2="80" y2="120" stroke="black" stroke-width="2"/>

  <line x1="140" y1="40" x2="160" y2="40" stroke="black" stroke-width="2"/>
  <line x1="140" y1="80" x2="160" y2="80" stroke="black" stroke-width="2"/>
  <line x1="140" y1="120" x2="160" y2="120" stroke="black" stroke-width="2"/>
  <line x1="160" y1="40" x2="160" y2="120" stroke="black" stroke-width="2"/>
  <line x1="160" y1="75" x2="170" y2="75" stroke="black" stroke-width="2"/>

  <!-- Current arrows -->
  <path d="M 50,68 L 58,68 L 54,64 Z" fill="blue"/>
  <path d="M 67,40 L 75,40 L 71,36 Z" fill="blue"/>
  <path d="M 67,80 L 75,80 L 71,76 Z" fill="blue"/>
  <path d="M 67,120 L 75,120 L 71,116 Z" fill="blue"/>
  <path d="M 170,68 L 162,68 L 166,64 Z" fill="blue"/>
</svg>
