<?xml version="1.0" encoding="UTF-8"?>
<svg width="200" height="100" viewBox="0 0 200 100" xmlns="http://www.w3.org/2000/svg">
  <!-- Battery -->
  <rect x="10" y="40" width="40" height="30" fill="white" stroke="black" stroke-width="2"/>
  <line x1="20" y1="55" x2="30" y2="55" stroke="black" stroke-width="3"/>
  <line x1="35" y1="55" x2="45" y2="55" stroke="black" stroke-width="3"/>
  <line x1="32" y1="45" x2="32" y2="65" stroke="black" stroke-width="1"/>

  <!-- Resistor 1 -->
  <rect x="70" y="50" width="40" height="20" fill="#f7d9c4" stroke="black" stroke-width="2"/>
  <text x="90" y="65" font-size="12" text-anchor="middle">R₁</text>

  <!-- Resistor 2 -->
  <rect x="130" y="50" width="40" height="20" fill="#f7d9c4" stroke="black" stroke-width="2"/>
  <text x="150" y="65" font-size="12" text-anchor="middle">R₂</text>

  <!-- Wires -->
  <line x1="50" y1="55" x2="70" y2="55" stroke="black" stroke-width="2"/>
  <line x1="110" y1="55" x2="130" y2="55" stroke="black" stroke-width="2"/>
  <line x1="170" y1="55" x2="190" y2="55" stroke="black" stroke-width="2"/>
  <line x1="190" y1="55" x2="190" y2="80" stroke="black" stroke-width="2"/>
  <line x1="190" y1="80" x2="10" y2="80" stroke="black" stroke-width="2"/>
  <line x1="10" y1="80" x2="10" y2="70" stroke="black" stroke-width="2"/>

  <!-- Current arrows -->
  <path d="M 55,48 L 65,48 L 60,44 Z" fill="blue"/>
  <path d="M 115,48 L 125,48 L 120,44 Z" fill="blue"/>
  <path d="M 175,48 L 185,48 L 180,44 Z" fill="blue"/>
  <path d="M 100,87 L 90,87 L 95,91 Z" fill="blue"/>
</svg>
